# xmcd
#
# Track frame offsets:
#	150
#	18722
#	37275
#	51230
#	69430
#	91306
#	109329
#	119589
#	137424
#	155618
#	171519
#	183544
#
# Disc length: 2639 seconds
#
# Revision: 1
# Processed by: cddbd v1.5.2PL0 Copyright (c) Steve Scherf et al.
# Submitted via: audiograbber 1.83.01
#
DISCID=b30a4d0c
DTITLE=Various Artist - Home of the Brave, Songs Celebrating America's Heroes
DYEAR=2014
DGENRE=Country
TTITLE0=Trace Adkins - Arlington
TTITLE1=Billy Ray Cyrus - Some Game All
TTITLE2=Johnny Cash - Ragged Old Flag (Live)
TTITLE3=Darryl Worely - Have You Forgotten?
TTITLE4=Jamey Johnson - In Color
TTITLE5=Jim Brickman and Robin Meade - Welcome Home
TTITLE6=Loretta Lynn - Dear Uncle Sam
TTITLE7=Chris LeDoux - I Believe In America
TTITLE8=Tracy Lawrence - If I Don't Make It Back
TTITLE9=Tracy Byrd - I'm From The Country
TTITLE10=Oak Ridge Boys - American Made
TTITLE11=Lee Greenwood - God Bless The USA
EXTD=
EXTT0=
EXTT1=
EXTT2=
EXTT3=
EXTT4=
EXTT5=
EXTT6=
EXTT7=
EXTT8=
EXTT9=
EXTT10=
EXTT11=
PLAYORDER=
